<svg xmlns="http://www.w3.org/2000/svg" viewBox="232 278 1136 740" width="1136" height="740" role="img" aria-labelledby="title">
  <title id="title">krillswitch stacked logo, navy text</title>
<g transform="translate(128.544 -143.874) scale(1.359223)">
  <g id="krillswitch-mark" fill="none" shape-rendering="geometricPrecision">
    <rect x="118" y="386" width="788" height="262" rx="131" ry="131" fill="#F21722"/>
    <path d="M260 398 C202 388 150 357 104 317 C154 346 205 354 276 363 C290 364 296 390 260 398 Z" fill="#F21722"/>
    <path d="M247 431 C190 427 132 408 82 372 C138 393 190 394 261 398 C280 399 283 427 247 431 Z" fill="#F21722"/>
    <path d="M232 465 C176 469 125 456 84 427 C137 441 184 435 242 432 C261 430 265 459 232 465 Z" fill="#F21722"/>
    <circle cx="263" cy="452" r="18" fill="#FFFFFF"/>
    <path d="M305 389 C394 407 431 489 372 584" stroke="#FFFFFF" stroke-width="34" stroke-linecap="round" stroke-linejoin="round"/>
    <path d="M315 392 C480 416 594 505 710 646" stroke="#FFFFFF" stroke-width="30" stroke-linecap="round" stroke-linejoin="round"/>
    <path d="M431 426 C464 474 468 527 440 577" stroke="#FFFFFF" stroke-width="28" stroke-linecap="round"/>
    <path d="M509 465 C540 512 546 562 515 611" stroke="#FFFFFF" stroke-width="28" stroke-linecap="round"/>
    <path d="M585 526 C608 561 618 596 596 635" stroke="#FFFFFF" stroke-width="26" stroke-linecap="round"/>
    <path d="M622 561 L715 656 L558 611" stroke="#FFFFFF" stroke-width="28" stroke-linecap="round" stroke-linejoin="round"/>
    <path d="M205 544 C180 562 172 593 176 619" stroke="#FFFFFF" stroke-width="26" stroke-linecap="round"/>
    <path d="M255 558 C233 580 228 609 233 634" stroke="#FFFFFF" stroke-width="26" stroke-linecap="round"/>
    <path d="M309 570 C291 596 291 621 301 643" stroke="#FFFFFF" stroke-width="26" stroke-linecap="round"/>
    <path d="M390 590 C372 612 358 628 333 636" stroke="#FFFFFF" stroke-width="26" stroke-linecap="round"/>
    <path d="M464 611 C446 632 429 643 404 644" stroke="#FFFFFF" stroke-width="24" stroke-linecap="round"/>
    <circle cx="772" cy="517" r="103" fill="#FFFFFF"/>
  </g></g>
  <path id="krillswitch-logotype" d="M 313 1008.196 L 349.473 1008.196 L 349.473 979.331 L 354.933 972.449 L 375.609 1008.196 L 417.164 1008.196 L 381.794 951.192 L 416.263 906.733 L 375.26 906.733 L 350.751 940.854 L 349.473 940.854 L 349.473 872.989 L 313 872.989 L 313 1008.196 Z M 425.708 1008.196 L 462.182 1008.196 L 462.182 955.374 C 462.182 943.758 470.08 936.15 480.883 936.15 C 484.6 936.15 490.669 936.672 494.299 937.95 L 494.299 906.907 C 491.395 906.007 488.23 905.455 485.064 905.455 C 474.262 905.455 465.812 911.815 462.182 926.16 L 461.107 926.16 L 461.107 906.733 L 425.708 906.733 L 425.708 1008.196 Z M 506.292 1008.196 L 542.765 1008.196 L 542.765 906.733 L 506.292 906.733 L 506.292 1008.196 Z M 524.442 896.395 C 534.315 896.395 542.417 888.961 542.417 879.698 C 542.417 870.434 534.315 863 524.442 863 C 514.539 863 506.466 870.434 506.466 879.698 C 506.466 888.961 514.539 896.395 524.442 896.395 Z M 597.758 872.989 L 561.285 872.989 L 561.285 1008.196 L 597.758 1008.196 L 597.758 872.989 Z M 652.751 872.989 L 616.278 872.989 L 616.278 1008.196 L 652.751 1008.196 L 652.751 872.989 Z M 716.543 1010.025 C 745.495 1010.025 766.549 996.406 766.549 974.627 C 766.549 959.642 756.385 950.844 735.709 947.214 L 715.004 943.584 C 707.396 942.219 705.392 939.315 705.392 936.324 C 705.392 932.142 710.387 929.79 716.63 929.79 C 723.716 929.79 729.524 932.781 731.15 939.402 L 763.296 934.785 C 760.102 916.345 742.766 905.455 715.904 905.455 C 686.865 905.455 669.093 917.361 669.093 938.502 C 669.093 954.473 679.344 964.55 699.933 968.267 L 717.908 971.519 C 725.894 972.971 729.524 975.062 729.524 978.983 C 729.524 983.135 725.342 985.313 718.169 985.313 C 707.831 985.313 702.837 980.87 700.484 972.884 L 666.741 977.792 C 670.168 997.771 688.956 1010.025 716.543 1010.025 Z M 800.307 1008.196 L 837.709 1008.196 L 847.321 974.801 C 849.122 968.732 850.864 959.004 852.577 950.03 C 854.291 959.004 856.033 968.732 857.833 974.801 L 867.474 1008.196 L 904.848 1008.196 L 934.439 906.733 L 895.584 906.733 L 889.776 938.502 C 887.686 950.205 885.159 962.808 883.156 977.153 C 880.542 962.808 877.348 950.205 874.996 938.502 L 868.549 906.733 L 836.983 906.733 L 830.159 938.502 C 827.72 950.03 824.642 962.633 821.999 976.892 C 819.821 962.633 817.091 950.118 815.001 938.502 L 809.193 906.733 L 771.093 906.733 L 800.307 1008.196 Z M 943.514 1008.196 L 979.987 1008.196 L 979.987 906.733 L 943.514 906.733 L 943.514 1008.196 Z M 961.663 896.395 C 971.536 896.395 979.638 888.961 979.638 879.698 C 979.638 870.434 971.536 863 961.663 863 C 951.761 863 943.688 870.434 943.688 879.698 C 943.688 888.961 951.761 896.395 961.663 896.395 Z M 1057.863 906.733 L 1040.439 906.733 L 1040.439 882.601 L 1003.937 882.601 L 1003.937 906.733 L 991.072 906.733 L 991.072 933.246 L 1003.937 933.246 L 1003.937 978.983 C 1003.937 999.223 1015.552 1009.735 1038.348 1009.735 C 1044.882 1009.735 1052.229 1009.096 1060.563 1006.831 L 1056.207 980.783 C 1054.843 981.248 1049.499 981.974 1047.321 981.974 C 1042.501 981.974 1040.439 979.883 1040.439 975.614 L 1040.439 933.246 L 1057.863 933.246 L 1057.863 906.733 Z M 1121.553 1010.025 C 1149.692 1010.025 1167.667 994.954 1170.106 970.793 L 1136.624 965.915 C 1135.085 976.892 1130.09 982.787 1122.105 982.787 C 1112.493 982.787 1106.307 974.162 1106.307 957.552 C 1106.307 940.854 1112.493 932.694 1122.105 932.694 C 1130.177 932.694 1134.882 938.415 1136.624 949.014 L 1170.106 944.048 C 1167.754 920.527 1149.518 905.455 1121.553 905.455 C 1088.535 905.455 1069.108 926.625 1069.108 957.726 C 1069.108 988.943 1088.535 1010.025 1121.553 1010.025 Z M 1221.284 951.192 C 1221.284 941.144 1227.005 935.046 1235.978 935.046 C 1245.155 935.046 1250.498 941.144 1250.498 951.192 L 1250.498 1008.196 L 1287 1008.196 L 1287 943.584 C 1287 921.427 1273.09 905.455 1251.601 905.455 C 1235.078 905.455 1225.553 914.893 1220.384 927.786 L 1220.384 872.989 L 1184.811 872.989 L 1184.811 1008.196 L 1221.284 1008.196 L 1221.284 951.192 Z" fill="#0B1020" fill-rule="nonzero"/>
</svg>
